<svg width="20" height="20" viewBox="0 0 20 20" fill="none" xmlns="http://www.w3.org/2000/svg">
<g clip-path="url(#clip0_865_2073)">
<path fill-rule="evenodd" clip-rule="evenodd" d="M19.8175 6.4324C19.8757 6.49045 19.9219 6.55942 19.9534 6.63535C19.9849 6.71129 20.0011 6.79269 20.0011 6.8749C20.0011 6.95711 19.9849 7.03851 19.9534 7.11444C19.9219 7.19037 19.8757 7.25934 19.8175 7.3174L16.0675 11.0674C16.0094 11.1256 15.9405 11.1718 15.8645 11.2033C15.7886 11.2348 15.7072 11.251 15.625 11.251C15.5428 11.251 15.4614 11.2348 15.3855 11.2033C15.3095 11.1718 15.2406 11.1256 15.1825 11.0674L13.3075 9.1924C13.1901 9.07504 13.1242 8.91587 13.1242 8.7499C13.1242 8.58393 13.1901 8.42475 13.3075 8.3074C13.4249 8.19004 13.584 8.12411 13.75 8.12411C13.916 8.12411 14.0751 8.19004 14.1925 8.3074L15.625 9.74115L18.9325 6.4324C18.9906 6.37419 19.0595 6.32801 19.1355 6.29651C19.2114 6.265 19.2928 6.24878 19.375 6.24878C19.4572 6.24878 19.5386 6.265 19.6145 6.29651C19.6905 6.32801 19.7594 6.37419 19.8175 6.4324Z" fill="white"/>
<path d="M1.25 17.5C1.25 17.5 0 17.5 0 16.25C0 15 1.25 11.25 7.5 11.25C13.75 11.25 15 15 15 16.25C15 17.5 13.75 17.5 13.75 17.5H1.25ZM7.5 10C8.49456 10 9.44839 9.60491 10.1517 8.90165C10.8549 8.19839 11.25 7.24456 11.25 6.25C11.25 5.25544 10.8549 4.30161 10.1517 3.59835C9.44839 2.89509 8.49456 2.5 7.5 2.5C6.50544 2.5 5.55161 2.89509 4.84835 3.59835C4.14509 4.30161 3.75 5.25544 3.75 6.25C3.75 7.24456 4.14509 8.19839 4.84835 8.90165C5.55161 9.60491 6.50544 10 7.5 10Z" fill="white"/>
</g>
<defs>
<clipPath id="clip0_865_2073">
<rect width="20" height="20" fill="white"/>
</clipPath>
</defs>
</svg>
