<svg width="20" height="15" viewBox="0 0 20 15" fill="none" xmlns="http://www.w3.org/2000/svg">
<path d="M18.75 15C18.75 15 20 15 20 13.75C20 12.5 18.75 8.75 13.75 8.75C8.75 8.75 7.5 12.5 7.5 13.75C7.5 15 8.75 15 8.75 15H18.75ZM8.7775 13.75C8.76132 13.7478 8.74998 13.7336 8.75055 13.7173C8.7627 13.364 8.97852 12.4345 9.7 11.595C10.39 10.7863 11.6025 10 13.75 10C15.8962 10 17.1087 10.7875 17.8 11.595C18.5339 12.449 18.7434 13.3973 18.7499 13.7351C18.75 13.7411 18.7459 13.746 18.74 13.7475C18.7342 13.7485 18.7284 13.7493 18.7225 13.75H8.7775ZM13.75 6.25C14.413 6.25 15.0489 5.98661 15.5178 5.51777C15.9866 5.04893 16.25 4.41304 16.25 3.75C16.25 3.08696 15.9866 2.45107 15.5178 1.98223C15.0489 1.51339 14.413 1.25 13.75 1.25C13.087 1.25 12.4511 1.51339 11.9822 1.98223C11.5134 2.45107 11.25 3.08696 11.25 3.75C11.25 4.41304 11.5134 5.04893 11.9822 5.51777C12.4511 5.98661 13.087 6.25 13.75 6.25ZM17.5 3.75C17.5 4.24246 17.403 4.73009 17.2146 5.18506C17.0261 5.64003 16.7499 6.05343 16.4017 6.40165C16.0534 6.74987 15.64 7.02609 15.1851 7.21455C14.7301 7.403 14.2425 7.5 13.75 7.5C13.2575 7.5 12.7699 7.403 12.3149 7.21455C11.86 7.02609 11.4466 6.74987 11.0983 6.40165C10.7501 6.05343 10.4739 5.64003 10.2855 5.18506C10.097 4.73009 10 4.24246 10 3.75C10 2.75544 10.3951 1.80161 11.0983 1.09835C11.8016 0.395088 12.7554 0 13.75 0C14.7446 0 15.6984 0.395088 16.4017 1.09835C17.1049 1.80161 17.5 2.75544 17.5 3.75ZM7.6125 10.12C8.0082 9.64125 7.84863 8.86587 7.23092 8.80093C7.19814 8.79748 7.16533 8.79426 7.1325 8.79125C6.83916 8.76336 6.54466 8.74959 6.25 8.75C1.25 8.75 0 12.5 0 13.75C0 14.5837 0.41625 15 1.25 15H5.22978C5.82888 15 6.23929 14.349 6.25 13.75C6.25 12.4875 6.72125 11.1975 7.6125 10.12ZM6.15 10.001C6.15 10.0007 6.14963 10.0006 6.14947 10.0008C5.58019 10.8564 5.21242 11.8255 5.06848 12.8354C4.99679 13.3384 4.59023 13.75 4.08214 13.75H3.13241C2.09278 13.75 1.31503 12.8676 1.89136 12.0023C1.9821 11.8661 2.08457 11.7294 2.2 11.595C2.88122 10.8 4.06489 10.0251 6.14971 10.0013C6.14987 10.0013 6.15 10.0011 6.15 10.001ZM1.875 4.375C1.875 3.38044 2.27009 2.42661 2.97335 1.72335C3.67661 1.02009 4.63044 0.625 5.625 0.625C6.61956 0.625 7.57339 1.02009 8.27665 1.72335C8.97991 2.42661 9.375 3.38044 9.375 4.375C9.375 5.36956 8.97991 6.32339 8.27665 7.02665C7.57339 7.72991 6.61956 8.125 5.625 8.125C4.63044 8.125 3.67661 7.72991 2.97335 7.02665C2.27009 6.32339 1.875 5.36956 1.875 4.375ZM5.625 1.875C4.96196 1.875 4.32607 2.13839 3.85723 2.60723C3.38839 3.07607 3.125 3.71196 3.125 4.375C3.125 5.03804 3.38839 5.67393 3.85723 6.14277C4.32607 6.61161 4.96196 6.875 5.625 6.875C6.28804 6.875 6.92393 6.61161 7.39277 6.14277C7.86161 5.67393 8.125 5.03804 8.125 4.375C8.125 3.71196 7.86161 3.07607 7.39277 2.60723C6.92393 2.13839 6.28804 1.875 5.625 1.875Z" fill="white"/>
</svg>
