<svg width="20" height="15" viewBox="0 0 100 102" fill="none" xmlns="http://www.w3.org/2000/svg">
<path d="M50 41.4375C50.8288 41.4375 51.6237 41.7733 52.2097 42.3711C52.7958 42.9689 53.125 43.7796 53.125 44.625V54.1875H62.5C63.3288 54.1875 64.1237 54.5233 64.7097 55.1211C65.2958 55.7189 65.625 56.5296 65.625 57.375C65.625 58.2204 65.2958 59.0311 64.7097 59.6289C64.1237 60.2267 63.3288 60.5625 62.5 60.5625H53.125V70.125C53.125 70.9704 52.7958 71.7811 52.2097 72.3789C51.6237 72.9767 50.8288 73.3125 50 73.3125C49.1712 73.3125 48.3763 72.9767 47.7903 72.3789C47.2042 71.7811 46.875 70.9704 46.875 70.125V60.5625H37.5C36.6712 60.5625 35.8763 60.2267 35.2903 59.6289C34.7042 59.0311 34.375 58.2204 34.375 57.375C34.375 56.5296 34.7042 55.7189 35.2903 55.1211C35.8763 54.5233 36.6712 54.1875 37.5 54.1875H46.875V44.625C46.875 43.7796 47.2042 42.9689 47.7903 42.3711C48.3763 41.7733 49.1712 41.4375 50 41.4375Z" fill="black"/>
<path d="M87.5 28.6875V89.25C87.5 92.6315 86.183 95.8745 83.8388 98.2656C81.4946 100.657 78.3152 102 75 102H25C21.6848 102 18.5054 100.657 16.1612 98.2656C13.817 95.8745 12.5 92.6315 12.5 89.25V12.75C12.5 9.36849 13.817 6.12548 16.1612 3.73439C18.5054 1.3433 21.6848 0 25 0L59.375 0L87.5 28.6875ZM68.75 28.6875C66.2636 28.6875 63.879 27.68 62.1209 25.8867C60.3627 24.0934 59.375 21.6611 59.375 19.125V6.375H25C23.3424 6.375 21.7527 7.04665 20.5806 8.24219C19.4085 9.43774 18.75 11.0592 18.75 12.75V89.25C18.75 90.9408 19.4085 92.5623 20.5806 93.7578C21.7527 94.9533 23.3424 95.625 25 95.625H75C76.6576 95.625 78.2473 94.9533 79.4194 93.7578C80.5915 92.5623 81.25 90.9408 81.25 89.25V28.6875H68.75Z" fill="black"/>
</svg>
