<svg width="15" height="20" viewBox="0 0 15 20" fill="none" xmlns="http://www.w3.org/2000/svg">
<path d="M0 2.5C0 1.83696 0.263392 1.20107 0.732233 0.732233C1.20107 0.263392 1.83696 0 2.5 0L12.5 0C13.163 0 13.7989 0.263392 14.2678 0.732233C14.7366 1.20107 15 1.83696 15 2.5V17.5C15 18.163 14.7366 18.7989 14.2678 19.2678C13.7989 19.7366 13.163 20 12.5 20H2.5C1.83696 20 1.20107 19.7366 0.732233 19.2678C0.263392 18.7989 0 18.163 0 17.5V2.5ZM12.5 1.25H2.5C2.16848 1.25 1.85054 1.3817 1.61612 1.61612C1.3817 1.85054 1.25 2.16848 1.25 2.5V17.5C1.25 17.8315 1.3817 18.1495 1.61612 18.3839C1.85054 18.6183 2.16848 18.75 2.5 18.75H12.5C12.8315 18.75 13.1495 18.6183 13.3839 18.3839C13.6183 18.1495 13.75 17.8315 13.75 17.5V2.5C13.75 2.16848 13.6183 1.85054 13.3839 1.61612C13.1495 1.3817 12.8315 1.25 12.5 1.25Z" fill="white"/>
<path d="M5 6.25C5 5.91848 5.1317 5.60054 5.36612 5.36612C5.60054 5.1317 5.91848 5 6.25 5H7.735C8.64668 5 9.52102 5.36216 10.1657 6.00682C10.8103 6.65148 11.1725 7.52582 11.1725 8.4375C11.1725 9.34918 10.8103 10.2235 10.1657 10.8682C9.52102 11.5128 8.64668 11.875 7.735 11.875H6.25V14.375C6.25 14.5408 6.18415 14.6997 6.06694 14.8169C5.94973 14.9342 5.79076 15 5.625 15C5.45924 15 5.30027 14.9342 5.18306 14.8169C5.06585 14.6997 5 14.5408 5 14.375V6.25ZM6.25 10.625H7.735C8.31516 10.625 8.87156 10.3945 9.2818 9.9843C9.69203 9.57406 9.9225 9.01766 9.9225 8.4375C9.9225 7.85734 9.69203 7.30094 9.2818 6.8907C8.87156 6.48047 8.31516 6.25 7.735 6.25H6.25V10.625Z" fill="white"/>
</svg>
