<svg width="20" height="18" viewBox="0 0 100 100" fill="none" xmlns="http://www.w3.org/2000/svg">
<path d="M50 62.5C53.3152 62.5 56.4946 61.183 58.8388 58.8388C61.183 56.4946 62.5 53.3152 62.5 50C62.5 46.6848 61.183 43.5054 58.8388 41.1612C56.4946 38.817 53.3152 37.5 50 37.5C46.6848 37.5 43.5054 38.817 41.1612 41.1612C38.817 43.5054 37.5 46.6848 37.5 50C37.5 53.3152 38.817 56.4946 41.1612 58.8388C43.5054 61.183 46.6848 62.5 50 62.5Z" fill="white"/>
<path d="M0 25C0 23.3424 0.65848 21.7527 1.83058 20.5806C3.00269 19.4085 4.5924 18.75 6.25 18.75H93.75C95.4076 18.75 96.9973 19.4085 98.1694 20.5806C99.3415 21.7527 100 23.3424 100 25V75C100 76.6576 99.3415 78.2473 98.1694 79.4194C96.9973 80.5915 95.4076 81.25 93.75 81.25H6.25C4.5924 81.25 3.00269 80.5915 1.83058 79.4194C0.65848 78.2473 0 76.6576 0 75V25ZM18.75 25C18.75 28.3152 17.433 31.4946 15.0888 33.8388C12.7446 36.183 9.56521 37.5 6.25 37.5V62.5C9.56521 62.5 12.7446 63.817 15.0888 66.1612C17.433 68.5054 18.75 71.6848 18.75 75H81.25C81.25 71.6848 82.567 68.5054 84.9112 66.1612C87.2554 63.817 90.4348 62.5 93.75 62.5V37.5C90.4348 37.5 87.2554 36.183 84.9112 33.8388C82.567 31.4946 81.25 28.3152 81.25 25H18.75Z" fill="white"/>
</svg>
