<svg width="20" height="17" viewBox="0 0 20 17" fill="none" xmlns="http://www.w3.org/2000/svg">
<path fill-rule="evenodd" clip-rule="evenodd" d="M0 15.4545C0 15.2134 0.0957791 14.9822 0.266267 14.8117C0.436754 14.6412 0.667985 14.5455 0.909091 14.5455H19.0909C19.332 14.5455 19.5632 14.6412 19.7337 14.8117C19.9042 14.9822 20 15.2134 20 15.4545C20 15.6957 19.9042 15.9269 19.7337 16.0974C19.5632 16.2679 19.332 16.3636 19.0909 16.3636H0.909091C0.667985 16.3636 0.436754 16.2679 0.266267 16.0974C0.0957791 15.9269 0 15.6957 0 15.4545ZM0 8.18182C0 7.94071 0.0957791 7.70948 0.266267 7.53899C0.436754 7.36851 0.667985 7.27273 0.909091 7.27273H19.0909C19.332 7.27273 19.5632 7.36851 19.7337 7.53899C19.9042 7.70948 20 7.94071 20 8.18182C20 8.42292 19.9042 8.65416 19.7337 8.82464C19.5632 8.99513 19.332 9.09091 19.0909 9.09091H0.909091C0.667985 9.09091 0.436754 8.99513 0.266267 8.82464C0.0957791 8.65416 0 8.42292 0 8.18182ZM0 0.909091C0 0.667985 0.0957791 0.436754 0.266267 0.266267C0.436754 0.0957791 0.667985 0 0.909091 0H19.0909C19.332 0 19.5632 0.0957791 19.7337 0.266267C19.9042 0.436754 20 0.667985 20 0.909091C20 1.1502 19.9042 1.38143 19.7337 1.55192C19.5632 1.7224 19.332 1.81818 19.0909 1.81818H0.909091C0.667985 1.81818 0.436754 1.7224 0.266267 1.55192C0.0957791 1.38143 0 1.1502 0 0.909091Z" fill="white"/>
</svg>
