<svg width="20" height="20" viewBox="0 0 100 100" fill="none" xmlns="http://www.w3.org/2000/svg">
<path d="M50 40.625C50.8288 40.625 51.6237 40.9542 52.2097 41.5403C52.7958 42.1263 53.125 42.9212 53.125 43.75V53.125H62.5C63.3288 53.125 64.1237 53.4542 64.7097 54.0403C65.2958 54.6263 65.625 55.4212 65.625 56.25C65.625 57.0788 65.2958 57.8737 64.7097 58.4597C64.1237 59.0458 63.3288 59.375 62.5 59.375H53.125V68.75C53.125 69.5788 52.7958 70.3737 52.2097 70.9597C51.6237 71.5458 50.8288 71.875 50 71.875C49.1712 71.875 48.3763 71.5458 47.7903 70.9597C47.2042 70.3737 46.875 69.5788 46.875 68.75V59.375H37.5C36.6712 59.375 35.8763 59.0458 35.2903 58.4597C34.7042 57.8737 34.375 57.0788 34.375 56.25C34.375 55.4212 34.7042 54.6263 35.2903 54.0403C35.8763 53.4542 36.6712 53.125 37.5 53.125H46.875V43.75C46.875 42.9212 47.2042 42.1263 47.7903 41.5403C48.3763 40.9542 49.1712 40.625 50 40.625Z" fill="white"/>
<path d="M87.5 28.125V87.5C87.5 90.8152 86.183 93.9946 83.8388 96.3388C81.4946 98.683 78.3152 100 75 100H25C21.6848 100 18.5054 98.683 16.1612 96.3388C13.817 93.9946 12.5 90.8152 12.5 87.5V12.5C12.5 9.18479 13.817 6.00537 16.1612 3.66117C18.5054 1.31696 21.6848 0 25 0L59.375 0L87.5 28.125ZM68.75 28.125C66.2636 28.125 63.879 27.1373 62.1209 25.3791C60.3627 23.621 59.375 21.2364 59.375 18.75V6.25H25C23.3424 6.25 21.7527 6.90848 20.5806 8.08058C19.4085 9.25268 18.75 10.8424 18.75 12.5V87.5C18.75 89.1576 19.4085 90.7473 20.5806 91.9194C21.7527 93.0915 23.3424 93.75 25 93.75H75C76.6576 93.75 78.2473 93.0915 79.4194 91.9194C80.5915 90.7473 81.25 89.1576 81.25 87.5V28.125H68.75Z" fill="white"/>
</svg>
