<svg width="20" height="20" viewBox="0 0 20 20" fill="none" xmlns="http://www.w3.org/2000/svg">
<path d="M0.125987 2.77985C-0.0430742 3.41593 -0.0419706 4.08527 0.129188 4.72079C0.300346 5.3563 0.635546 5.93566 1.10119 6.4008C1.56683 6.86594 2.14656 7.2005 2.78226 7.37097C3.41796 7.54144 4.0873 7.54181 4.72319 7.37206L12.6489 15.1866C12.4842 15.7461 12.4522 16.3364 12.5554 16.9105C12.6586 17.4846 12.8941 18.0268 13.2434 18.494C13.5927 18.9612 14.046 19.3405 14.5675 19.6019C15.0889 19.8634 15.6641 19.9997 16.2475 20C16.7848 19.9993 17.3158 19.883 17.8043 19.6591C18.2929 19.4353 18.7276 19.109 19.079 18.7025C19.4305 18.2959 19.6904 17.8186 19.8412 17.3028C19.9921 16.787 20.0303 16.2448 19.9533 15.713C19.8763 15.1811 19.6859 14.672 19.395 14.2202C19.104 13.7684 18.7194 13.3844 18.2671 13.0942C17.8148 12.804 17.3054 12.6144 16.7734 12.5383C16.2414 12.4622 15.6993 12.5013 15.1838 12.653L7.36927 4.72723C7.53985 4.09109 7.5401 3.42128 7.37 2.78502C7.1999 2.14875 6.86544 1.56842 6.40017 1.10227C5.93491 0.636122 5.35522 0.300552 4.71928 0.129242C4.08334 -0.0420686 3.41353 -0.0430918 2.77707 0.126275L5.45315 2.8036L4.99818 5.00096L2.80207 5.45593L0.125987 2.77985ZM16.8374 14.0529L17.4974 14.0854L17.8561 14.6416L18.4123 15.0003L18.4448 15.6615L18.7473 16.2502L18.4448 16.839L18.4123 17.5002L17.8561 17.8589L17.4974 18.4151L16.8362 18.4476L16.2475 18.7501L15.6587 18.4476L14.9975 18.4151L14.6388 17.8589L14.0826 17.5002L14.0501 16.839L13.7476 16.2502L14.0501 15.6615L14.0826 15.0003L14.6388 14.6416L14.9975 14.0854L15.6587 14.0529L16.2475 13.7504L16.8362 14.0529H16.8374Z" fill="white"/>
</svg>
