<svg width="20" height="15" viewBox="0 0 20 15" fill="none" xmlns="http://www.w3.org/2000/svg">
<path d="M7.5 7.5C8.49456 7.5 9.44839 7.10491 10.1517 6.40165C10.8549 5.69839 11.25 4.74456 11.25 3.75C11.25 2.75544 10.8549 1.80161 10.1517 1.09835C9.44839 0.395088 8.49456 0 7.5 0C6.50544 0 5.55161 0.395088 4.84835 1.09835C4.14509 1.80161 3.75 2.75544 3.75 3.75C3.75 4.74456 4.14509 5.69839 4.84835 6.40165C5.55161 7.10491 6.50544 7.5 7.5 7.5ZM10 3.75C10 4.41304 9.73661 5.04893 9.26777 5.51777C8.79893 5.98661 8.16304 6.25 7.5 6.25C6.83696 6.25 6.20107 5.98661 5.73223 5.51777C5.26339 5.04893 5 4.41304 5 3.75C5 3.08696 5.26339 2.45107 5.73223 1.98223C6.20107 1.51339 6.83696 1.25 7.5 1.25C8.16304 1.25 8.79893 1.51339 9.26777 1.98223C9.73661 2.45107 10 3.08696 10 3.75ZM15 13.75C15 15 13.75 15 13.75 15H1.25C1.25 15 0 15 0 13.75C0 12.5 1.25 8.75 7.5 8.75C13.75 8.75 15 12.5 15 13.75ZM13.75 13.745C13.7487 13.4375 13.5575 12.5125 12.71 11.665C11.895 10.85 10.3612 10 7.5 10C4.6375 10 3.105 10.85 2.29 11.665C1.4425 12.5125 1.2525 13.4375 1.25 13.745H13.75Z" fill="white"/>
<path fill-rule="evenodd" clip-rule="evenodd" d="M16.875 3.75C17.0408 3.75 17.1997 3.81585 17.3169 3.93306C17.4342 4.05027 17.5 4.20924 17.5 4.375V6.25H19.375C19.5408 6.25 19.6997 6.31585 19.8169 6.43306C19.9342 6.55027 20 6.70924 20 6.875C20 7.04076 19.9342 7.19973 19.8169 7.31694C19.6997 7.43415 19.5408 7.5 19.375 7.5H17.5V9.375C17.5 9.54076 17.4342 9.69973 17.3169 9.81694C17.1997 9.93415 17.0408 10 16.875 10C16.7092 10 16.5503 9.93415 16.4331 9.81694C16.3158 9.69973 16.25 9.54076 16.25 9.375V7.5H14.375C14.2092 7.5 14.0503 7.43415 13.9331 7.31694C13.8158 7.19973 13.75 7.04076 13.75 6.875C13.75 6.70924 13.8158 6.55027 13.9331 6.43306C14.0503 6.31585 14.2092 6.25 14.375 6.25H16.25V4.375C16.25 4.20924 16.3158 4.05027 16.4331 3.93306C16.5503 3.81585 16.7092 3.75 16.875 3.75Z" fill="white"/>
</svg>
